<svg xmlns="http://www.w3.org/2000/svg" width="64" height="64" display="block">
  <symbol id='icon-mods' viewBox='0 0 64 64'>
    <path d="M 3,28 32,2 61,28 l -5,0 0,35 -28,0 0,-16 -10,0 0,16 -10,0 0,-35 z"></path>
  </symbol>
  <symbol id='icon-maps' viewBox='0 0 64 64'>
    <path d="M 62,52 33,61 24,56 2,62 2,12 24,6 33,11 62,2 Z" />
    <path d="M 24,56 24,6" />
    <path d="M 33,61 33,11" />
  </symbol>
  <symbol id='icon-online' viewBox='0 0 64 64'>
    <path d="m 0,32 64,0"/>
    <path d="M 63,32 A 31,31 0 0 1 32,63 31,31 0 0 1 1,32 31,31 0 0 1 32,1 31,31 0 0 1 63,32 Z"/>
    <path d="M 47,32 A 15,31 0 0 1 32,63 15,31 0 0 1 17,32 15,31 0 0 1 32,1 15,31 0 0 1 47,32 Z"/>
    <path d="M 56.5,12.5 A 24.505711,6 0 0 1 32.283037,18.4995 24.505711,6 0 0 1 7.5,12.6413"/>
    <path d="M 56.5,51.5 A 24.505711,6 0 0 0 32.283037,45.5004 24.505711,6 0 0 0 7.5,51.3586"/>
  </symbol>
  <symbol id='icon-backups' viewBox='0 0 64 64'>
    <path d="m 54,43 a 22,6 0 0 1 -11,5.194225 22,6 0 0 1 -22,0 A 22,6 0 0 1 10,43" />
    <path d="m 54,54 a 22,6 0 0 1 -11,5.194224 22,6 0 0 1 -22,0 A 22,6 0 0 1 10,54" />
    <path d="m 54,32 a 22,6 0 0 1 -11,5.194225 22,6 0 0 1 -22,0 A 22,6 0 0 1 10,32" />
    <path d="m 54,21 a 22,6 0 0 1 -11,5.194225 22,6 0 0 1 -22,0 A 22,6 0 0 1 10,21" />
    <path d="M 54,10 A 22,6 0 0 1 32,16 22,6 0 0 1 10,10 a 22,6 0 0 1 22,-6 22,6 0 0 1 22,6 z" />
    <path d="m 10,54 0,-44" />
    <path d="m 54,54 0,-44" />
  </symbol>
  <symbol id='icon-settings' viewBox='0 0 64 64'>
    <path d="m 15,4 0,56" />
    <path d="M 49,4 49,60" />
    <path d="M 32,4 32,60" />
    <path d="m 12,18 6,0 0,6 -6,0 z" />
    <path d="m 29,41 6,0 0,6 -6,0 z" />
    <path d="m 46,27 6,0 0,6 -6,0 z" />
  </symbol>
</svg>
